<?xml version="1.0" encoding="UTF-8" ?>
<!DOCTYPE svg PUBLIC "-//W3C//DTD SVG 1.1//EN" "http://www.w3.org/Graphics/SVG/1.1/DTD/svg11.dtd">
<svg width="1506pt" height="232pt" viewBox="0 0 1506 232" version="1.1" xmlns="http://www.w3.org/2000/svg">
<g id="#567557ff">
<path fill="#567557" opacity="1.00" d=" M 147.94 16.54 C 175.96 11.04 204.74 11.98 233.09 13.64 C 237.44 14.15 241.80 14.70 246.19 14.52 C 245.87 14.75 245.23 15.21 244.91 15.44 C 243.64 17.39 242.09 19.12 240.46 20.77 C 244.47 40.72 245.96 61.07 246.29 81.37 C 249.64 82.52 253.00 83.67 256.40 84.68 L 256.44 85.31 C 258.10 85.71 259.76 86.18 261.42 86.61 L 261.49 87.71 C 261.95 87.59 262.87 87.35 263.32 87.23 L 263.50 88.70 C 263.96 88.58 264.90 88.33 265.36 88.21 L 265.34 89.22 C 266.48 89.69 267.62 90.16 268.76 90.64 L 268.42 91.90 C 268.89 91.70 269.83 91.30 270.31 91.10 L 270.46 92.02 C 272.04 92.97 273.46 94.17 274.80 95.44 L 276.07 95.01 L 275.41 96.12 C 278.55 97.81 280.83 100.63 282.95 103.42 L 283.59 103.60 C 283.60 104.10 283.61 105.11 283.62 105.61 C 281.28 107.04 279.18 108.80 277.24 110.73 C 273.85 106.46 269.66 102.96 265.28 99.77 C 263.18 98.38 260.94 97.23 258.62 96.28 L 258.52 95.60 C 257.25 95.25 255.98 94.90 254.72 94.54 C 254.68 94.36 254.60 93.99 254.56 93.81 C 242.77 89.64 229.97 88.15 217.66 90.79 C 214.22 91.73 210.79 92.69 207.37 93.73 L 207.36 94.24 C 204.74 95.21 202.23 96.43 199.77 97.74 C 188.97 104.18 180.41 113.94 174.50 124.97 L 174.89 126.22 C 174.62 126.28 174.08 126.41 173.81 126.47 C 173.38 128.32 172.65 130.09 171.81 131.79 C 167.97 143.40 167.50 156.07 170.44 167.95 C 171.36 171.26 169.12 174.19 167.59 176.93 L 167.51 177.65 C 167.09 178.53 166.68 179.41 166.28 180.31 C 151.39 179.16 136.41 180.00 121.53 178.67 C 121.48 175.01 121.36 171.34 121.31 167.68 C 115.18 167.60 109.05 167.62 102.92 167.66 C 102.33 170.34 101.66 173.00 100.83 175.61 C 100.52 176.96 100.23 178.31 99.94 179.66 C 98.20 179.49 96.46 179.33 94.72 179.17 C 96.61 169.38 96.02 159.00 92.23 149.71 C 91.39 148.04 90.56 146.36 89.71 144.70 C 87.47 140.92 84.77 137.42 81.82 134.17 C 78.86 131.48 75.51 129.26 72.33 126.84 C 70.41 126.03 68.51 125.19 66.59 124.38 L 66.63 123.53 C 65.85 123.53 64.28 123.55 63.49 123.56 L 63.64 122.74 C 58.06 121.96 52.52 120.09 46.83 120.78 C 42.83 121.32 38.78 121.63 34.88 122.76 C 34.18 123.08 32.78 123.74 32.08 124.06 C 33.61 115.69 35.18 107.25 38.15 99.25 C 38.45 98.20 38.76 97.15 39.07 96.11 C 40.26 92.97 41.92 90.03 43.89 87.31 C 44.15 87.30 44.67 87.28 44.94 87.28 C 47.68 86.01 50.66 85.40 53.68 85.29 L 53.36 84.73 C 76.62 81.27 99.98 77.59 123.55 77.54 C 123.40 62.78 123.64 48.01 123.43 33.24 C 124.56 33.32 125.70 33.40 126.84 33.48 C 126.98 28.78 126.94 24.08 126.93 19.37 C 127.71 19.37 129.29 19.37 130.07 19.37 C 130.05 24.08 130.01 28.79 130.17 33.50 C 131.02 33.43 132.71 33.30 133.56 33.23 C 133.35 48.09 133.64 62.95 133.41 77.80 C 135.16 78.11 136.93 78.36 138.69 78.60 C 139.72 57.68 142.22 36.74 147.94 16.54 M 150.84 22.61 C 150.62 24.07 150.35 25.52 150.06 26.96 C 149.68 28.61 149.36 30.27 149.01 31.93 C 148.67 33.60 148.36 35.27 148.01 36.94 C 147.71 38.94 147.40 40.94 146.99 42.92 C 145.29 54.68 143.66 66.49 143.38 78.39 C 147.54 74.61 151.28 70.41 155.22 66.41 C 156.11 66.15 157.01 65.89 157.90 65.63 C 161.11 68.16 164.01 71.05 166.95 73.89 C 169.13 71.21 171.34 68.54 173.76 66.07 C 171.14 63.48 166.79 61.40 167.09 57.12 C 168.25 57.53 169.51 57.85 170.41 58.75 C 175.86 63.95 181.44 69.01 186.63 74.46 C 187.26 75.02 187.57 75.72 187.54 76.55 C 183.48 77.51 181.33 72.69 178.28 70.81 C 176.10 73.23 173.95 75.66 171.68 77.99 C 172.10 79.04 172.52 80.10 172.91 81.17 C 162.71 95.08 153.41 109.64 143.59 123.82 C 143.63 125.32 143.66 126.82 143.69 128.33 C 147.30 128.23 150.91 128.23 154.53 128.33 C 159.24 114.88 167.47 102.63 178.67 93.75 C 182.99 90.43 187.32 86.90 192.48 84.99 C 192.88 64.06 192.52 43.13 192.66 22.20 C 178.72 22.38 164.78 22.42 150.84 22.61 M 196.32 22.31 C 196.28 42.65 195.99 62.99 195.93 83.33 C 198.77 82.34 201.60 81.36 204.46 80.44 C 205.77 81.14 207.13 79.50 208.41 79.28 C 206.17 79.04 203.92 79.00 201.68 79.08 C 200.76 78.71 199.83 78.35 198.90 78.01 C 199.34 76.08 199.81 74.16 200.29 72.24 C 201.25 71.52 202.21 70.79 203.17 70.07 C 207.84 69.98 212.51 69.85 217.18 69.91 C 219.37 64.02 220.92 57.92 222.78 51.92 C 223.55 48.52 224.84 45.23 226.97 42.45 C 228.73 42.62 230.49 42.78 232.26 42.96 C 229.84 54.53 226.53 65.98 225.81 77.85 C 230.94 77.85 236.04 78.30 241.09 79.20 C 240.87 60.14 238.90 41.11 236.00 22.27 C 222.77 22.30 209.55 22.22 196.32 22.31 M 95.67 85.43 C 95.42 86.59 95.16 87.74 94.89 88.89 C 94.67 90.91 94.40 92.93 93.94 94.91 C 93.67 96.92 93.39 98.93 92.95 100.92 C 92.74 102.44 92.53 103.96 92.33 105.49 C 94.60 105.38 96.88 105.31 99.16 105.26 C 100.54 98.33 102.07 91.40 102.94 84.38 C 100.50 84.66 98.08 84.98 95.67 85.43 M 77.81 87.38 C 77.10 93.92 75.63 100.34 74.92 106.88 C 77.37 106.51 79.81 106.13 82.23 105.59 C 83.10 99.17 84.36 92.80 85.64 86.45 C 83.02 86.66 80.40 86.94 77.81 87.38 M 56.34 90.74 C 56.45 90.87 56.68 91.14 56.80 91.28 C 53.51 91.70 50.28 92.40 47.00 92.89 C 45.79 95.52 44.52 98.11 43.37 100.77 C 42.33 103.37 41.64 106.10 40.86 108.79 C 40.60 110.71 40.34 112.63 40.05 114.55 C 40.92 114.49 42.68 114.38 43.55 114.32 L 43.51 113.61 C 46.17 113.07 48.82 112.44 51.53 112.20 L 51.49 111.63 C 56.15 110.81 60.67 109.40 65.27 108.31 C 66.19 101.65 67.42 95.04 68.63 88.43 C 64.58 89.40 60.50 90.39 56.34 90.74 Z" />
</g>
<g id="#467934ff">
<path fill="#467934" opacity="1.00" d=" M 368.19 76.56 C 369.39 76.56 370.60 76.57 371.81 76.57 C 371.77 101.01 371.82 125.45 371.79 149.89 C 386.00 149.88 400.22 149.89 414.44 149.88 C 414.46 146.12 414.45 142.36 414.48 138.59 C 404.07 138.68 393.67 138.56 383.27 138.66 C 383.31 135.16 383.32 131.66 383.23 128.17 C 384.44 128.16 385.66 128.15 386.87 128.13 C 386.82 130.36 386.78 132.58 386.75 134.80 C 397.25 135.17 407.78 134.44 418.26 135.22 C 418.15 141.35 418.25 147.49 418.17 153.63 C 401.50 153.67 384.83 153.56 368.16 153.69 C 368.25 127.98 368.19 102.27 368.19 76.56 Z" />
</g>
<g id="#4a7b37ff">
<path fill="#4a7b37" opacity="1.00" d=" M 595.18 76.32 C 613.36 76.44 631.55 76.40 649.74 76.34 C 649.68 82.45 649.68 88.55 649.74 94.66 C 640.93 94.55 632.12 94.67 623.32 94.59 C 623.32 111.85 623.34 129.12 623.31 146.38 C 622.38 146.38 620.51 146.38 619.58 146.38 C 619.51 127.99 619.66 109.60 619.50 91.21 C 628.40 90.50 637.33 91.11 646.25 90.82 C 646.21 87.27 646.21 83.72 646.24 80.17 C 630.40 80.03 614.56 80.16 598.72 80.11 C 598.70 80.98 598.67 82.74 598.66 83.61 C 613.03 83.57 627.41 83.69 641.79 83.57 C 641.78 84.85 641.78 86.14 641.80 87.42 C 626.27 87.37 610.73 87.35 595.20 87.44 C 595.23 83.73 595.24 80.03 595.18 76.32 Z" />
</g>
<g id="#4a7b38ff">
<path fill="#4a7b38" opacity="1.00" d=" M 712.22 76.34 C 713.41 76.34 714.61 76.34 715.82 76.33 C 715.71 100.85 715.83 125.36 715.76 149.87 C 719.62 149.89 723.49 149.89 727.36 149.89 C 727.34 140.46 727.36 131.03 727.35 121.60 C 730.67 121.53 734.00 121.46 737.33 121.37 C 741.93 129.83 746.47 138.33 750.98 146.85 C 751.62 147.82 751.92 149.21 753.04 149.76 C 757.12 150.09 761.23 149.84 765.32 149.83 C 762.02 141.78 757.07 134.52 753.72 126.49 C 754.74 126.12 755.76 125.75 756.80 125.37 C 761.76 134.86 766.80 144.30 771.99 153.66 C 764.79 153.58 757.60 153.60 750.40 153.64 C 745.77 144.65 740.88 135.80 736.24 126.81 C 735.59 124.55 732.98 125.25 731.23 125.03 C 731.07 134.57 731.29 144.11 731.10 153.65 C 724.80 153.60 718.51 153.58 712.21 153.66 C 712.27 127.89 712.29 102.12 712.22 76.34 Z" />
</g>
<g id="#313d2d5f">
<path fill="#313d2d" opacity="0.37" d=" M 719.45 76.39 C 723.87 75.46 728.46 76.22 732.96 75.99 C 742.22 75.76 752.28 76.27 760.07 81.89 C 761.91 82.98 763.19 84.72 764.03 86.66 C 760.68 83.16 756.87 79.82 752.06 78.57 C 741.67 75.49 730.67 77.12 720.01 76.71 C 719.99 95.14 720.01 113.57 720.00 132.00 C 719.98 136.91 720.23 141.82 719.70 146.71 L 719.60 147.62 C 718.87 140.43 719.41 133.20 719.25 125.99 C 719.39 109.46 718.97 92.90 719.45 76.39 Z" />
</g>
<g id="#4c7c39ff">
<path fill="#4c7c39" opacity="1.00" d=" M 862.11 76.39 C 864.36 76.39 866.62 76.39 868.89 76.38 C 878.27 97.17 887.65 117.96 897.00 138.75 C 899.10 143.62 901.62 148.32 903.24 153.39 C 896.71 153.48 890.18 153.52 883.65 153.63 C 881.42 148.29 878.80 143.12 876.82 137.68 C 866.89 137.54 856.96 137.32 847.03 137.53 C 846.16 140.68 844.88 143.68 843.54 146.66 C 842.01 146.63 840.48 146.63 838.97 146.63 C 840.96 142.55 842.75 138.37 844.53 134.20 C 855.94 134.26 867.35 134.23 878.77 134.22 C 880.96 139.51 883.41 144.69 885.75 149.91 C 889.73 149.88 893.72 149.89 897.71 149.88 C 887.70 126.41 876.99 103.25 867.05 79.75 C 866.27 79.76 864.72 79.76 863.95 79.76 C 853.97 103.22 843.43 126.44 833.32 149.85 C 837.88 149.90 842.44 149.94 847.00 149.79 C 848.01 146.91 849.16 144.08 850.23 141.22 C 857.79 141.24 865.36 141.23 872.93 141.22 C 873.42 142.36 873.91 143.50 874.43 144.64 C 867.14 144.55 859.85 144.65 852.56 144.57 C 851.28 147.55 849.98 150.51 848.63 153.45 C 841.68 153.30 834.74 153.42 827.80 153.37 C 838.88 127.56 850.69 102.06 862.11 76.39 Z" />
</g>
<g id="#4e7e3cff">
<path fill="#4e7e3c" opacity="1.00" d=" M 1070.93 76.38 C 1089.14 76.42 1107.36 76.42 1125.57 76.39 C 1125.52 82.46 1125.53 88.54 1125.57 94.61 C 1116.75 94.57 1107.93 94.60 1099.11 94.60 C 1099.13 110.08 1099.08 125.56 1099.14 141.04 C 1099.11 142.80 1099.06 144.59 1098.63 146.31 C 1097.83 146.36 1096.23 146.46 1095.42 146.51 C 1095.42 127.98 1095.42 109.45 1095.43 90.93 C 1104.22 90.85 1113.01 90.96 1121.81 90.86 C 1121.85 87.29 1121.86 83.71 1121.81 80.14 C 1106.07 80.04 1090.33 80.13 1074.58 80.10 C 1074.56 80.98 1074.52 82.75 1074.50 83.64 C 1088.91 83.59 1103.32 83.68 1117.73 83.59 C 1117.72 84.86 1117.73 86.14 1117.75 87.41 C 1102.25 87.37 1086.75 87.30 1071.25 87.45 C 1070.78 83.78 1070.78 80.07 1070.93 76.38 Z" />
<path fill="#4e7e3c" opacity="1.00" d=" M 1214.12 84.89 C 1222.39 83.52 1231.38 83.80 1238.74 88.24 C 1255.34 97.28 1258.14 122.85 1245.11 136.10 C 1241.81 139.79 1237.46 142.29 1232.90 144.09 C 1225.60 146.25 1217.35 146.80 1210.33 143.42 C 1201.04 139.73 1193.79 131.23 1191.68 121.46 C 1190.66 114.38 1190.99 106.81 1194.63 100.46 C 1198.35 92.62 1205.85 87.13 1214.12 84.89 M 1194.66 113.94 C 1194.32 123.36 1199.33 132.67 1207.14 137.86 C 1214.39 143.02 1224.30 143.74 1232.51 140.56 C 1239.26 138.00 1244.44 132.36 1247.72 126.05 C 1247.98 124.93 1248.25 123.81 1248.54 122.70 C 1248.74 122.62 1249.15 122.46 1249.36 122.39 C 1249.71 116.12 1250.52 109.43 1247.63 103.59 C 1244.72 96.81 1238.93 91.70 1232.20 88.85 C 1227.16 87.50 1221.86 86.86 1216.71 87.87 C 1204.56 90.16 1194.89 101.57 1194.66 113.94 Z" />
</g>
<g id="#303a2d56">
<path fill="#303a2d" opacity="0.34" d=" M 1317.23 76.10 C 1318.75 76.08 1320.29 76.07 1321.84 76.06 C 1322.18 100.61 1321.88 125.18 1321.99 149.74 C 1325.47 149.75 1328.96 149.74 1332.46 149.68 C 1332.81 140.12 1332.11 130.53 1332.86 120.99 C 1336.26 121.01 1339.66 120.99 1343.07 120.92 C 1343.41 121.97 1343.76 123.02 1344.12 124.08 C 1343.45 123.26 1342.79 122.44 1342.14 121.64 C 1339.13 121.81 1336.14 121.95 1333.15 122.12 C 1332.85 131.40 1333.09 140.69 1332.98 149.98 C 1329.00 150.02 1325.02 150.01 1321.05 149.96 C 1320.93 125.53 1321.04 101.11 1320.99 76.68 C 1320.25 76.68 1318.76 76.67 1318.01 76.67 C 1317.99 102.22 1318.00 127.77 1318.01 153.32 C 1324.11 153.32 1330.22 153.33 1336.34 153.30 C 1336.38 143.88 1336.31 134.46 1336.36 125.03 C 1337.92 125.01 1339.48 124.99 1341.08 124.97 C 1343.23 128.74 1345.20 132.61 1346.95 136.60 C 1344.24 133.08 1342.56 128.95 1340.27 125.18 C 1339.45 125.21 1337.82 125.26 1337.00 125.28 C 1336.99 134.85 1337.01 144.43 1337.00 154.00 C 1330.41 153.98 1323.82 154.08 1317.23 153.92 C 1317.05 127.99 1317.05 102.04 1317.23 76.10 Z" />
</g>
<g id="#477934ff">
<path fill="#477934" opacity="1.00" d=" M 375.64 76.62 C 389.64 76.58 403.64 76.62 417.64 76.60 C 417.64 82.87 417.64 89.14 417.64 95.41 C 408.88 95.39 400.11 95.39 391.35 95.41 C 391.35 94.13 391.35 92.86 391.35 91.59 C 398.87 91.60 406.39 91.63 413.92 91.58 C 413.94 87.86 413.94 84.15 413.93 80.43 C 402.42 80.35 390.90 80.42 379.39 80.39 C 379.40 91.13 379.40 101.87 379.39 112.61 C 387.87 112.56 396.35 112.69 404.83 112.53 C 404.83 113.84 404.84 115.16 404.85 116.47 C 395.11 116.30 385.37 116.46 375.64 116.38 C 375.61 103.13 375.60 89.87 375.64 76.62 Z" />
<path fill="#477934" opacity="1.00" d=" M 383.30 83.90 C 392.11 83.87 400.91 83.89 409.72 83.89 C 409.74 85.15 409.77 86.41 409.80 87.67 C 402.12 87.56 394.44 87.65 386.76 87.62 C 386.82 93.49 386.82 99.36 386.76 105.24 C 395.46 105.13 404.16 105.30 412.86 105.14 C 412.76 111.38 412.76 117.62 412.86 123.86 C 401.70 123.70 390.55 123.88 379.39 123.76 C 379.40 129.97 379.41 136.19 379.39 142.40 C 389.76 142.35 400.13 142.38 410.50 142.39 C 410.45 143.21 410.34 144.85 410.29 145.67 C 406.24 146.49 402.08 146.01 397.99 146.11 C 390.51 145.99 383.02 146.42 375.56 145.81 C 375.66 137.27 375.64 128.73 375.58 120.20 C 386.83 120.23 398.07 120.15 409.32 120.24 C 409.28 116.41 409.28 112.58 409.33 108.76 C 400.63 108.87 391.93 108.72 383.24 108.85 C 383.37 100.53 383.27 92.22 383.30 83.90 Z" />
</g>
<g id="#4b7c38ff">
<path fill="#4b7c38" opacity="1.00" d=" M 720.01 76.71 C 730.67 77.12 741.67 75.49 752.06 78.57 C 756.87 79.82 760.68 83.16 764.03 86.66 C 768.48 92.53 768.35 100.51 767.28 107.44 C 765.59 116.70 756.96 123.19 747.88 124.08 C 751.29 131.97 755.72 139.38 759.84 146.91 C 758.33 146.84 756.83 146.78 755.34 146.73 C 751.00 138.30 746.37 130.03 741.87 121.70 C 748.69 120.97 756.17 119.14 760.47 113.30 C 766.31 105.31 765.72 92.97 758.64 85.89 C 753.02 80.21 744.45 79.83 736.95 79.97 C 732.33 80.00 727.71 79.99 723.10 80.03 C 722.92 100.03 723.13 120.03 722.99 140.03 C 722.98 142.24 723.10 144.47 723.44 146.67 C 722.50 146.68 720.63 146.70 719.70 146.71 C 720.23 141.82 719.98 136.91 720.00 132.00 C 720.01 113.57 719.99 95.14 720.01 76.71 Z" />
<path fill="#4b7c38" opacity="1.00" d=" M 727.22 84.17 C 735.39 84.71 744.03 82.87 751.74 86.40 C 762.07 91.15 763.62 107.72 754.34 114.24 C 746.21 119.19 736.35 117.19 727.35 117.65 C 727.32 116.49 727.29 115.33 727.27 114.17 C 735.58 113.96 744.60 115.59 752.14 111.15 C 756.56 108.45 757.22 102.57 756.39 97.89 C 755.90 93.94 752.65 91.11 749.32 89.36 C 749.36 89.22 749.42 88.92 749.45 88.78 C 743.36 87.61 737.17 87.68 731.01 87.78 C 731.03 89.13 731.06 90.48 731.10 91.83 C 735.73 91.88 740.39 91.89 745.00 92.47 C 748.80 92.93 752.46 95.98 752.49 100.01 C 752.86 104.38 749.28 108.15 745.19 109.04 C 739.33 110.36 733.25 110.08 727.29 110.11 C 727.29 106.61 727.28 103.11 727.28 99.61 C 728.15 99.59 729.91 99.55 730.79 99.54 C 730.92 101.81 731.02 104.09 731.11 106.38 C 737.00 106.25 743.62 107.52 748.47 103.29 C 748.50 101.75 748.86 100.15 748.39 98.64 C 746.99 96.58 744.41 95.68 742.01 95.66 C 737.09 95.51 732.17 95.64 727.25 95.66 C 727.30 91.83 727.31 88.00 727.22 84.17 Z" />
</g>
<g id="#4d7d3bff">
<path fill="#4d7d3b" opacity="1.00" d=" M 958.18 93.48 C 964.02 84.85 973.52 78.40 983.99 77.12 C 995.98 75.30 1008.39 79.59 1017.13 87.91 C 1016.27 88.85 1015.43 89.80 1014.60 90.76 C 1009.65 86.19 1003.76 82.31 997.04 81.04 C 990.99 80.01 984.72 80.21 978.82 81.94 C 971.46 84.95 964.38 89.49 960.27 96.49 C 955.65 104.03 953.35 113.39 955.60 122.10 C 958.63 137.43 973.28 149.96 989.07 149.61 C 997.31 150.07 1005.03 146.51 1011.76 142.08 C 1009.69 139.07 1007.59 136.08 1005.74 132.94 C 1001.01 135.14 996.40 138.01 991.06 138.35 C 982.02 138.51 972.85 133.30 969.05 124.97 C 963.45 114.67 967.91 100.65 978.05 95.05 C 982.94 92.56 988.63 91.64 994.04 92.60 C 997.68 93.36 1000.92 95.28 1004.29 96.77 C 1005.07 95.57 1005.84 94.37 1006.60 93.16 C 1000.32 89.88 993.34 86.58 986.06 88.08 C 977.30 89.13 969.37 94.75 965.31 102.55 C 962.04 108.17 961.75 115.00 962.90 121.26 C 965.62 133.06 976.87 142.46 989.07 142.54 C 994.39 142.74 999.62 141.05 1004.08 138.22 C 1004.75 139.22 1005.44 140.23 1006.15 141.23 C 998.99 145.78 990.10 146.92 981.90 145.14 C 971.75 142.32 962.93 134.32 959.99 124.10 C 954.22 107.34 966.26 87.69 983.59 84.73 C 993.78 82.58 1004.24 86.36 1011.74 93.30 C 1009.15 95.97 1006.76 98.82 1004.56 101.80 C 1000.21 98.23 994.89 95.26 989.09 95.62 C 980.38 95.75 972.28 102.35 970.62 110.93 C 969.62 116.17 970.61 121.82 973.92 126.08 C 976.41 130.10 980.69 132.37 984.86 134.27 C 988.21 134.32 991.64 134.73 994.93 133.90 C 999.01 132.36 1002.65 129.88 1006.48 127.82 L 1006.81 128.47 C 1009.25 133.69 1012.91 138.19 1015.89 143.11 C 1009.86 146.59 1003.96 150.65 997.09 152.26 C 991.28 153.70 985.25 152.80 979.44 151.95 C 972.87 150.27 966.69 146.62 962.29 141.44 C 960.34 138.43 958.31 135.48 956.47 132.41 C 952.41 125.51 950.96 117.18 952.11 109.28 C 953.07 103.66 955.99 98.67 958.18 93.48 Z" />
</g>
<g id="#4f7e3dff">
<path fill="#4f7e3d" opacity="1.00" d=" M 1211.55 77.75 C 1227.49 72.77 1246.22 79.97 1254.82 94.25 C 1261.19 104.02 1262.67 116.89 1258.60 127.83 C 1253.69 141.29 1240.99 151.52 1226.73 153.23 C 1214.34 155.12 1201.87 149.32 1193.44 140.46 C 1185.32 131.25 1181.69 118.02 1184.75 106.05 C 1187.93 92.75 1198.42 81.62 1211.55 77.75 M 1209.76 81.83 C 1205.54 83.69 1201.51 86.05 1198.10 89.17 C 1193.89 93.23 1191.04 98.45 1188.82 103.81 C 1186.64 111.25 1187.27 119.10 1188.78 126.59 C 1188.91 126.60 1189.17 126.60 1189.31 126.61 C 1193.16 137.41 1202.55 146.16 1213.68 149.08 C 1222.70 150.74 1232.25 149.70 1240.34 145.22 C 1246.93 141.27 1252.04 135.21 1255.15 128.21 C 1258.88 118.29 1258.19 106.91 1253.23 97.53 C 1251.38 94.83 1249.33 92.28 1247.18 89.83 C 1240.52 83.87 1231.97 79.93 1222.98 79.66 C 1218.45 79.37 1214.13 80.93 1209.76 81.83 Z" />
<path fill="#4f7e3d" opacity="1.00" d=" M 1205.36 98.23 C 1214.24 88.53 1231.46 89.14 1240.06 98.92 C 1246.73 106.92 1247.79 119.31 1242.04 128.10 C 1237.55 135.46 1228.57 139.58 1220.06 138.62 C 1209.85 137.92 1201.17 129.73 1198.84 119.93 C 1197.28 112.20 1199.71 103.77 1205.36 98.23 M 1214.67 95.79 C 1210.59 98.24 1206.67 101.25 1204.32 105.47 C 1201.60 110.03 1201.81 115.67 1202.73 120.71 C 1204.61 127.03 1209.98 131.59 1215.79 134.29 C 1221.29 134.95 1227.32 135.46 1232.28 132.43 C 1236.50 130.39 1239.35 126.42 1241.22 122.23 C 1241.54 121.22 1241.90 120.21 1242.28 119.21 C 1242.34 116.39 1242.53 113.56 1242.16 110.76 C 1240.66 103.90 1235.53 97.87 1228.84 95.61 C 1224.30 93.78 1219.26 94.61 1214.67 95.79 Z" />
</g>
<g id="#4f7f3dff">
<path fill="#4f7f3d" opacity="1.00" d=" M 1318.01 76.67 C 1318.76 76.67 1320.25 76.68 1320.99 76.68 C 1321.04 101.11 1320.93 125.53 1321.05 149.96 C 1325.02 150.01 1329.00 150.02 1332.98 149.98 C 1333.09 140.69 1332.85 131.40 1333.15 122.12 C 1336.14 121.95 1339.13 121.81 1342.14 121.64 C 1342.79 122.44 1343.45 123.26 1344.12 124.08 C 1348.99 132.53 1353.43 141.24 1358.00 149.86 C 1362.35 149.92 1366.71 149.93 1371.07 149.86 C 1367.16 142.05 1363.08 134.33 1358.91 126.66 C 1359.99 126.24 1361.08 125.82 1362.19 125.40 C 1367.24 134.80 1372.23 144.24 1377.35 153.60 C 1370.19 153.57 1363.03 153.61 1355.87 153.58 C 1352.93 147.90 1349.87 142.28 1346.95 136.60 C 1345.20 132.61 1343.23 128.74 1341.08 124.97 C 1339.48 124.99 1337.92 125.01 1336.36 125.03 C 1336.31 134.46 1336.38 143.88 1336.34 153.30 C 1330.22 153.33 1324.11 153.32 1318.01 153.32 C 1318.00 127.77 1317.99 102.22 1318.01 76.67 Z" />
<path fill="#4f7f3d" opacity="1.00" d=" M 1325.20 146.82 C 1325.34 123.33 1325.28 99.84 1325.24 76.35 C 1336.07 76.89 1347.22 75.16 1357.76 78.38 C 1364.70 80.38 1370.75 85.93 1372.48 93.07 C 1374.69 101.31 1373.47 111.04 1367.55 117.50 C 1363.78 121.57 1358.27 123.00 1353.14 124.47 C 1357.11 131.93 1361.08 139.39 1365.15 146.80 C 1363.71 146.78 1362.29 146.76 1360.89 146.74 C 1356.40 138.36 1351.97 129.94 1347.26 121.68 C 1354.16 121.00 1362.01 119.18 1366.16 113.08 C 1370.27 107.50 1370.51 99.99 1368.83 93.49 C 1366.50 85.88 1358.74 81.20 1351.12 80.46 C 1343.68 79.73 1336.19 80.24 1328.74 80.11 C 1328.82 102.35 1328.64 124.59 1328.83 146.83 C 1327.60 146.82 1326.39 146.81 1325.20 146.82 Z" />
</g>
<g id="#4f7f3eff">
<path fill="#4f7f3e" opacity="1.00" d=" M 1446.76 79.95 C 1451.11 77.67 1455.97 75.93 1460.97 76.46 C 1470.68 76.77 1479.48 81.40 1487.77 86.04 C 1487.17 87.04 1486.59 88.05 1486.03 89.06 C 1478.70 85.42 1471.44 80.78 1463.04 80.34 C 1456.60 79.69 1449.52 81.03 1444.93 85.91 C 1439.41 90.78 1437.80 99.00 1440.06 105.84 C 1442.95 113.08 1450.05 117.92 1457.41 119.79 C 1462.05 121.19 1467.35 122.65 1470.07 127.05 C 1472.36 131.48 1469.69 137.36 1464.84 138.56 C 1460.48 139.08 1455.82 139.00 1451.84 136.96 C 1449.09 135.51 1446.33 134.12 1443.49 132.90 C 1441.22 136.18 1439.16 139.60 1437.38 143.16 C 1444.17 147.35 1452.14 150.14 1460.19 149.89 C 1466.63 149.80 1473.43 147.82 1477.54 142.55 C 1482.57 136.68 1483.50 127.48 1479.33 120.91 C 1475.67 115.50 1469.76 112.09 1463.61 110.23 C 1458.82 108.64 1453.32 107.05 1450.50 102.50 C 1449.91 99.81 1449.89 96.67 1451.62 94.36 C 1453.24 92.06 1456.21 91.12 1458.94 91.22 C 1465.48 90.95 1471.43 94.06 1477.26 96.60 C 1477.78 95.42 1478.32 94.24 1478.88 93.06 C 1472.42 89.90 1465.48 86.75 1458.10 87.47 C 1451.22 87.29 1445.16 94.08 1446.39 100.91 C 1446.67 106.42 1451.83 109.79 1456.47 111.64 C 1463.27 114.41 1471.55 115.54 1476.06 122.02 C 1479.92 128.51 1478.56 137.87 1472.56 142.63 C 1469.35 145.26 1465.09 146.03 1461.08 146.29 C 1454.88 146.38 1449.09 143.92 1443.40 141.82 C 1443.98 140.69 1444.56 139.56 1445.16 138.43 C 1452.50 141.56 1460.74 144.16 1468.62 141.25 C 1470.93 139.26 1472.91 136.92 1474.37 134.23 C 1474.56 130.42 1475.15 125.87 1471.97 123.04 C 1465.70 116.84 1456.00 116.98 1449.11 111.79 C 1442.74 107.56 1440.62 98.12 1444.71 91.63 C 1448.36 85.60 1455.96 82.61 1462.80 83.99 C 1470.53 84.53 1477.40 88.35 1484.06 91.98 C 1482.20 95.03 1480.31 98.05 1478.45 101.09 C 1471.57 97.39 1464.05 93.65 1456.00 94.69 C 1455.24 95.57 1454.48 96.44 1453.74 97.31 C 1453.65 98.69 1453.59 100.06 1453.54 101.44 C 1460.00 106.91 1469.14 107.03 1475.80 112.17 C 1482.01 116.26 1485.56 123.61 1485.60 130.96 C 1485.29 139.49 1479.98 147.58 1472.27 151.21 C 1467.27 153.49 1461.56 154.10 1456.19 153.05 C 1447.93 151.79 1440.01 148.62 1433.06 143.99 C 1436.16 138.93 1439.40 133.94 1442.49 128.87 C 1449.35 132.05 1456.23 136.32 1464.15 135.36 C 1465.21 134.40 1466.28 133.43 1467.36 132.45 C 1467.36 131.52 1467.36 129.64 1467.36 128.71 C 1462.34 123.52 1454.69 123.50 1448.74 119.99 C 1443.02 117.09 1438.02 112.17 1436.28 105.86 C 1433.40 96.18 1437.92 84.88 1446.76 79.95 Z" />
<path fill="#4f7f3e" opacity="1.00" d=" M 1332.67 84.24 C 1340.70 84.69 1349.20 82.92 1356.81 86.28 C 1368.15 90.77 1369.22 109.64 1358.23 115.10 C 1350.31 118.92 1341.31 117.23 1332.86 117.59 C 1332.84 116.75 1332.80 115.08 1332.78 114.24 C 1340.91 113.89 1349.76 115.69 1357.17 111.38 C 1364.83 106.79 1363.74 93.69 1355.87 89.88 C 1349.92 86.62 1342.93 88.09 1336.47 87.70 C 1336.49 88.75 1336.53 90.85 1336.55 91.89 C 1342.38 92.22 1348.81 91.07 1354.17 93.91 C 1359.65 96.76 1358.80 105.76 1353.26 108.04 C 1346.76 110.56 1339.48 110.22 1332.64 109.76 C 1332.70 106.39 1332.70 103.02 1332.72 99.65 C 1333.68 99.64 1335.58 99.62 1336.53 99.61 C 1336.52 101.89 1336.50 104.16 1336.50 106.44 C 1342.09 105.97 1348.99 107.93 1353.39 103.42 C 1355.17 101.91 1353.88 99.49 1353.56 97.62 C 1347.18 94.06 1339.63 96.14 1332.70 95.58 C 1332.70 91.80 1332.71 88.02 1332.67 84.24 Z" />
</g>
<g id="#7f8e80d2">
<path fill="#7f8e80" opacity="0.82" d=" M 201.68 79.08 C 203.92 79.00 206.17 79.04 208.41 79.28 C 207.13 79.50 205.77 81.14 204.46 80.44 C 203.54 79.98 202.61 79.52 201.68 79.08 Z" />
</g>
<g id="#313d2d5c">
<path fill="#313d2d" opacity="0.36" d=" M 723.10 80.03 C 727.71 79.99 732.33 80.00 736.95 79.97 C 744.45 79.83 753.02 80.21 758.64 85.89 C 755.15 84.17 751.81 81.95 747.93 81.22 C 740.05 79.64 731.97 80.48 724.00 80.29 C 724.01 100.86 723.98 121.43 724.02 141.99 C 724.01 143.92 723.83 145.84 723.60 147.76 L 723.44 146.67 C 723.10 144.47 722.98 142.24 722.99 140.03 C 723.13 120.03 722.92 100.03 723.10 80.03 Z" />
</g>
<g id="#4c7c3aff">
<path fill="#4c7c3a" opacity="1.00" d=" M 865.48 86.60 C 874.44 106.64 883.47 126.64 892.47 146.66 C 891.03 146.63 889.61 146.61 888.19 146.59 C 881.00 129.51 873.10 112.73 866.01 95.61 L 864.98 95.60 C 860.93 106.39 856.02 116.85 851.85 127.60 C 858.50 127.63 865.14 127.63 871.79 127.59 C 869.90 123.20 867.77 118.92 866.01 114.47 L 864.98 114.45 C 863.89 117.57 862.67 120.63 861.51 123.71 C 860.08 123.88 858.67 124.04 857.27 124.21 C 860.01 117.52 862.97 110.92 865.47 104.13 C 869.27 113.04 873.43 121.80 877.40 130.63 C 866.87 130.56 856.34 130.62 845.81 130.60 C 852.41 115.95 858.99 101.30 865.48 86.60 Z" />
</g>
<g id="#497b37ff">
<path fill="#497b37" opacity="1.00" d=" M 595.25 90.87 C 602.09 90.89 608.93 90.89 615.78 90.87 C 615.75 110.45 615.83 130.03 615.75 149.61 C 619.60 149.60 623.45 149.60 627.30 149.62 C 627.17 132.47 627.38 115.31 627.20 98.17 C 628.41 98.16 629.62 98.16 630.85 98.15 C 630.72 116.66 630.76 135.17 630.82 153.68 C 624.62 153.58 618.41 153.58 612.21 153.68 C 612.33 133.98 612.16 114.28 612.29 94.59 C 606.58 94.65 600.87 94.55 595.16 94.68 C 595.18 93.41 595.21 92.14 595.25 90.87 Z" />
</g>
<g id="#4e7e3bff">
<path fill="#4e7e3b" opacity="1.00" d=" M 1070.72 91.29 C 1077.67 90.50 1084.68 91.06 1091.66 90.91 C 1091.64 110.49 1091.71 130.06 1091.64 149.64 C 1095.51 149.62 1099.40 149.62 1103.29 149.60 C 1103.13 132.46 1103.36 115.31 1103.17 98.16 C 1104.35 98.17 1105.55 98.18 1106.76 98.19 C 1106.62 116.67 1106.68 135.16 1106.73 153.65 C 1100.55 153.57 1094.37 153.55 1088.19 153.67 C 1088.34 133.97 1088.14 114.27 1088.29 94.58 C 1082.51 94.61 1076.73 94.58 1070.95 94.60 C 1070.90 93.77 1070.78 92.12 1070.72 91.29 Z" />
</g>
<g id="#577658ff">
<path fill="#577658" opacity="1.00" d=" M 221.56 93.62 C 227.90 93.26 234.28 93.18 240.60 93.92 C 240.60 95.56 240.60 97.19 240.60 98.83 L 242.62 98.62 L 242.13 96.95 C 244.23 97.75 246.37 98.42 248.56 98.94 C 249.77 98.26 250.99 97.60 252.23 96.96 C 252.31 97.40 252.46 98.28 252.54 98.72 C 252.98 98.59 253.88 98.34 254.33 98.21 L 254.49 99.69 C 254.96 99.57 255.90 99.35 256.37 99.23 L 256.44 100.08 C 258.69 100.93 260.69 102.30 262.57 103.79 C 263.99 104.79 265.46 105.73 266.95 106.65 C 266.35 107.96 265.73 109.25 265.13 110.55 C 266.14 110.89 267.17 111.24 268.19 111.59 C 269.01 112.64 269.83 113.70 270.66 114.75 C 272.03 114.72 273.41 114.65 274.79 114.56 C 277.66 119.05 280.51 123.56 282.97 128.31 C 281.52 129.15 280.09 129.99 278.65 130.83 L 278.17 133.17 L 279.97 132.18 C 280.53 134.34 281.12 136.49 281.67 138.65 C 283.25 139.06 284.84 139.44 286.44 139.79 C 287.38 144.48 287.74 149.26 287.65 154.04 C 285.74 154.35 283.85 154.71 281.95 154.99 C 279.90 153.93 279.99 157.14 281.98 156.01 C 282.46 156.03 283.43 156.06 283.92 156.07 C 283.51 158.18 283.08 160.29 282.46 162.35 C 283.57 163.45 284.69 164.55 285.83 165.64 C 285.31 168.92 284.25 172.12 282.58 175.00 C 282.66 175.39 282.83 176.17 282.91 176.55 L 281.49 176.25 C 281.53 176.88 281.61 178.13 281.65 178.75 C 279.84 178.54 278.03 178.37 276.24 178.06 C 275.98 176.50 272.91 176.62 274.36 178.31 C 274.74 178.45 275.50 178.75 275.88 178.89 C 276.26 179.13 277.03 179.61 277.42 179.85 C 277.04 180.02 276.29 180.35 275.92 180.52 C 275.14 181.66 274.35 182.78 273.53 183.89 C 273.51 184.85 273.48 186.76 273.46 187.72 L 274.78 187.39 C 274.69 187.93 274.51 189.02 274.42 189.56 C 271.58 192.34 269.03 195.44 265.80 197.79 C 264.08 197.08 262.68 195.82 261.19 194.76 C 261.01 195.40 260.64 196.69 260.46 197.34 C 258.88 198.28 257.26 199.16 255.56 199.85 C 255.56 201.57 255.58 203.31 255.61 205.04 C 255.09 204.84 254.04 204.45 253.51 204.25 L 253.35 205.78 C 252.86 205.68 251.90 205.49 251.42 205.40 L 251.36 206.80 C 250.90 206.67 249.99 206.41 249.53 206.28 C 249.50 206.53 249.45 207.04 249.42 207.30 C 246.96 207.79 244.53 208.41 242.06 208.88 C 241.75 207.62 241.46 206.36 241.19 205.10 C 238.12 205.88 235.00 206.45 231.85 206.78 C 231.55 208.06 231.25 209.34 230.94 210.62 C 225.67 210.52 220.48 209.64 215.33 208.61 C 215.48 207.14 215.62 205.67 215.76 204.21 C 214.73 204.04 212.67 203.69 211.63 203.52 C 211.63 203.26 211.62 202.75 211.62 202.49 C 208.87 201.83 206.16 202.34 204.23 204.51 C 200.34 201.58 195.77 199.61 192.40 195.96 C 191.09 194.99 189.85 193.93 188.62 192.85 C 189.07 192.80 189.97 192.70 190.42 192.65 C 190.61 191.47 190.79 190.29 190.98 189.11 C 188.60 187.98 187.33 185.58 186.09 183.42 C 184.66 183.76 183.23 184.12 181.82 184.48 C 179.44 180.01 176.86 175.57 175.36 170.70 C 175.89 170.58 176.94 170.35 177.46 170.23 L 177.87 167.86 L 176.67 168.63 C 176.30 166.29 175.79 163.97 175.38 161.64 C 174.45 161.21 173.52 160.78 172.59 160.35 C 172.39 154.04 172.07 147.69 172.90 141.40 C 174.32 141.34 175.74 141.28 177.16 141.22 C 177.58 141.10 178.43 140.86 178.85 140.74 C 178.35 140.66 177.34 140.49 176.84 140.41 C 175.49 137.48 179.91 133.16 176.17 130.91 C 177.23 128.28 178.46 125.72 179.64 123.14 C 181.38 120.53 183.07 117.89 184.57 115.13 C 185.79 115.50 187.05 115.78 188.17 116.42 C 189.34 118.51 191.17 115.49 188.67 115.70 C 190.03 113.87 191.50 112.14 192.90 110.34 L 194.08 110.48 C 193.59 109.79 192.62 108.43 192.14 107.74 C 196.52 103.56 201.75 100.00 207.56 98.17 L 207.61 97.31 C 207.95 97.31 208.63 97.31 208.97 97.31 C 211.13 95.12 212.91 98.03 214.42 99.36 C 214.40 98.82 214.37 97.73 214.36 97.19 C 215.18 97.29 216.83 97.49 217.65 97.59 L 217.44 96.61 C 218.70 96.50 219.96 96.39 221.22 96.28 C 221.31 95.62 221.48 94.29 221.56 93.62 M 199.31 137.71 L 198.84 137.38 C 198.31 139.58 197.63 141.74 196.82 143.85 C 195.15 152.46 195.78 161.73 200.13 169.50 C 202.37 173.55 205.25 177.26 208.80 180.25 C 211.29 182.08 213.96 183.64 216.66 185.14 C 225.03 188.75 234.47 188.96 243.08 186.10 C 251.93 182.21 259.35 175.15 263.19 166.22 C 266.39 157.49 266.48 147.59 263.04 138.92 C 259.36 130.50 252.65 123.65 244.25 119.90 C 242.18 119.28 240.13 118.61 238.13 117.81 C 233.32 117.35 228.49 117.40 223.68 117.75 C 213.22 120.54 203.68 127.63 199.31 137.71 M 178.24 168.27 C 178.79 168.78 178.79 168.78 178.24 168.27 M 239.09 202.67 C 238.20 203.86 238.45 204.54 239.84 204.73 C 240.72 203.53 240.47 202.85 239.09 202.67 Z" />
<path fill="#577658" opacity="1.00" d=" M 222.54 125.58 C 229.73 123.77 237.45 124.29 244.00 127.93 C 249.12 131.11 254.09 135.52 255.92 141.44 L 256.45 141.43 C 261.89 154.77 256.16 171.73 243.00 178.08 C 237.17 180.99 230.43 181.27 224.12 180.13 C 214.36 177.56 206.54 169.58 203.85 159.90 C 202.87 153.46 202.66 146.50 205.80 140.59 C 208.96 133.76 215.06 127.81 222.51 126.12 L 222.54 125.58 M 222.79 132.78 C 221.54 133.54 220.28 134.26 219.00 134.95 C 212.21 139.91 207.95 148.84 210.29 157.20 C 211.33 163.14 215.39 167.84 219.97 171.47 C 220.32 171.40 221.01 171.26 221.36 171.18 L 221.48 172.24 C 229.72 175.42 239.43 174.08 245.90 167.86 C 247.20 165.98 248.53 164.13 249.72 162.18 C 250.24 160.85 250.75 159.50 251.30 158.18 C 251.73 154.40 251.71 150.59 251.29 146.81 C 249.04 140.85 244.85 135.75 239.16 132.80 C 233.83 131.15 228.11 131.00 222.79 132.78 Z" />
</g>
<g id="#3b56319e">
<path fill="#3b5631" opacity="0.62" d=" M 962.29 141.44 C 949.17 129.72 947.05 107.23 958.18 93.48 C 955.99 98.67 953.07 103.66 952.11 109.28 C 950.96 117.18 952.41 125.51 956.47 132.41 C 958.31 135.48 960.34 138.43 962.29 141.44 Z" />
<path fill="#3b5631" opacity="0.62" d=" M 1443.49 132.90 C 1446.33 134.12 1449.09 135.51 1451.84 136.96 C 1448.97 136.50 1446.33 135.27 1443.86 133.82 C 1442.06 136.78 1440.25 139.73 1438.38 142.64 C 1444.94 146.78 1452.56 148.87 1460.19 149.89 C 1452.14 150.14 1444.17 147.35 1437.38 143.16 C 1439.16 139.60 1441.22 136.18 1443.49 132.90 Z" />
</g>
<g id="#aab9abff">
<path fill="#aab9ab" opacity="1.00" d=" M 188.17 116.42 L 188.67 115.70 C 191.17 115.49 189.34 118.51 188.17 116.42 Z" />
</g>
<g id="#487a35ff">
<path fill="#487a35" opacity="1.00" d=" M 489.34 121.35 C 502.11 121.39 514.87 121.39 527.64 121.35 C 527.59 125.18 527.59 129.01 527.68 132.83 C 514.89 132.77 502.09 132.76 489.30 132.83 C 489.39 129.01 489.38 125.18 489.34 121.35 M 493.17 125.17 C 493.13 126.49 493.10 127.80 493.07 129.11 C 503.50 129.11 513.93 129.09 524.37 129.13 C 524.35 127.79 524.34 126.46 524.33 125.13 C 513.94 125.15 503.56 125.07 493.17 125.17 Z" />
</g>
<g id="#557456ff">
<path fill="#557456" opacity="1.00" d=" M 43.18 124.47 C 47.95 124.09 52.72 124.16 57.48 124.65 C 57.38 125.18 57.17 126.24 57.07 126.77 C 59.95 127.59 62.91 127.75 65.88 127.58 C 66.17 127.83 66.75 128.31 67.05 128.56 C 67.41 128.43 68.15 128.18 68.51 128.06 L 68.40 129.07 C 71.07 130.00 73.52 131.51 75.60 133.43 C 75.48 134.28 75.25 136.00 75.13 136.86 C 76.64 136.21 77.56 136.76 77.89 138.53 L 78.74 138.32 L 78.37 139.63 C 79.25 139.57 81.02 139.44 81.91 139.38 C 82.25 140.15 82.59 140.93 82.93 141.71 C 83.56 142.51 84.17 143.33 84.77 144.15 C 85.63 145.77 86.55 147.35 87.59 148.85 C 86.50 149.56 85.40 150.27 84.29 150.96 L 84.33 152.64 L 85.46 152.07 C 85.84 153.50 86.22 154.92 86.71 156.32 C 87.70 157.18 89.07 157.25 90.27 157.65 C 90.48 160.98 90.62 164.32 90.73 167.66 C 89.88 167.63 88.19 167.57 87.35 167.54 C 87.52 169.73 87.59 171.93 87.63 174.13 C 88.12 174.49 89.09 175.21 89.57 175.57 C 89.52 178.49 87.91 181.11 86.75 183.71 C 86.65 184.19 86.46 185.14 86.37 185.62 C 84.79 184.28 82.74 184.00 82.27 186.41 C 82.05 186.84 81.63 187.71 81.42 188.15 C 81.14 188.99 80.59 190.69 80.31 191.53 C 80.79 191.58 81.76 191.67 82.25 191.71 C 79.98 194.19 77.61 196.58 75.17 198.90 C 73.97 198.11 72.76 197.34 71.54 196.61 C 71.61 197.04 71.77 197.88 71.84 198.30 C 71.31 198.62 70.24 199.26 69.70 199.58 L 68.59 199.31 C 68.20 200.89 67.82 202.47 67.45 204.06 C 66.45 204.25 65.45 204.45 64.44 204.64 C 64.42 204.90 64.38 205.43 64.36 205.70 C 63.61 205.64 62.10 205.53 61.35 205.47 L 61.60 206.30 C 60.68 206.42 59.76 206.56 58.84 206.69 C 57.74 202.67 53.16 204.94 50.37 205.52 C 50.48 206.05 50.69 207.12 50.79 207.65 C 46.88 207.81 42.99 207.35 39.15 206.59 C 39.28 205.82 39.55 204.29 39.68 203.53 C 37.68 202.90 35.70 202.23 33.76 201.45 C 32.77 202.33 31.79 203.23 30.80 204.12 C 30.75 203.80 30.64 203.15 30.58 202.83 C 29.05 201.99 27.54 201.11 26.05 200.22 C 24.27 198.62 22.36 197.16 20.46 195.72 C 20.89 194.99 21.76 193.53 22.19 192.80 C 21.55 192.34 20.27 191.43 19.63 190.97 C 19.52 190.40 19.30 189.26 19.19 188.69 C 17.77 188.67 16.35 188.66 14.92 188.65 C 13.12 185.63 11.60 182.44 10.59 179.07 C 11.07 179.22 12.01 179.52 12.49 179.67 L 12.53 176.96 L 11.47 177.73 C 11.19 176.11 10.86 174.51 10.52 172.91 C 10.11 172.70 9.29 172.26 8.87 172.05 C 7.93 167.54 8.52 162.89 8.94 158.35 C 9.64 158.37 11.03 158.40 11.72 158.42 C 11.40 156.07 12.07 153.79 12.76 151.57 C 12.32 151.48 11.43 151.30 10.99 151.21 C 12.12 148.56 13.35 145.96 14.82 143.48 C 15.81 142.01 16.70 140.47 17.53 138.90 C 17.49 139.23 17.40 139.89 17.36 140.22 C 18.24 140.42 20.00 140.82 20.88 141.02 C 19.61 138.85 22.37 137.84 23.40 136.43 C 23.39 135.68 23.38 134.17 23.37 133.42 C 25.02 132.40 26.61 131.30 28.16 130.14 C 30.89 128.63 33.75 127.38 36.51 125.94 C 36.54 126.42 36.58 127.39 36.60 127.87 C 38.92 127.27 41.24 126.61 43.61 126.22 C 43.50 125.78 43.29 124.90 43.18 124.47 M 43.49 141.66 C 43.49 141.88 43.48 142.33 43.48 142.56 C 42.81 142.60 41.48 142.70 40.82 142.74 C 34.72 145.69 29.66 150.53 26.95 156.79 C 26.56 157.81 26.17 158.84 25.77 159.86 C 25.10 165.35 25.12 170.98 26.86 176.29 C 29.76 182.36 34.59 187.31 40.69 190.20 C 46.10 192.31 51.97 191.90 57.63 191.32 C 57.59 191.10 57.52 190.66 57.49 190.44 C 58.13 190.40 59.42 190.33 60.07 190.29 C 62.75 188.60 65.33 186.76 67.88 184.88 C 69.74 182.36 71.52 179.78 73.19 177.13 C 75.46 171.22 76.03 164.75 74.19 158.63 C 71.66 151.74 66.51 146.18 60.05 142.76 C 59.40 142.70 58.10 142.58 57.45 142.52 C 57.50 142.31 57.58 141.88 57.63 141.67 C 52.92 141.32 48.20 141.17 43.49 141.66 Z" />
<path fill="#557456" opacity="1.00" d=" M 31.03 161.69 C 33.30 151.33 44.63 144.41 54.92 146.81 C 59.59 148.36 64.17 151.02 66.73 155.36 C 71.81 163.19 70.71 174.50 64.04 181.08 C 59.09 185.91 51.76 187.63 45.07 186.19 C 40.38 184.65 36.54 181.48 33.52 177.64 C 31.00 172.77 29.37 167.12 31.03 161.69 M 36.05 161.09 C 34.41 165.87 35.30 171.17 37.66 175.55 C 40.91 179.54 45.75 182.33 51.05 181.74 C 57.92 181.97 62.94 176.00 65.32 170.17 C 65.40 166.57 65.52 162.80 63.71 159.55 C 62.11 155.85 58.56 153.72 55.28 151.71 C 53.57 151.56 51.87 151.37 50.16 151.33 C 43.94 150.90 38.11 155.37 36.05 161.09 Z" />
</g>
<g id="#3c56319f">
<path fill="#3c5631" opacity="0.62" d=" M 1006.81 128.47 C 1010.74 133.04 1013.59 138.41 1017.16 143.26 C 1010.65 147.40 1004.02 151.80 996.29 153.21 C 990.71 154.55 984.78 153.91 979.44 151.95 C 985.25 152.80 991.28 153.70 997.09 152.26 C 1003.96 150.65 1009.86 146.59 1015.89 143.11 C 1012.91 138.19 1009.25 133.69 1006.81 128.47 Z" />
</g>
<g id="#aab9aaff">
<path fill="#aab9aa" opacity="1.00" d=" M 176.84 140.41 C 177.34 140.49 178.35 140.66 178.85 140.74 C 178.43 140.86 177.58 141.10 177.16 141.22 L 176.84 140.41 Z" />
</g>
<g id="#819882ff">
<path fill="#819882" opacity="1.00" d=" M 281.98 156.01 C 279.99 157.14 279.90 153.93 281.95 154.99 L 281.98 156.01 Z" />
</g>
<g id="#bdc9beff">
<path fill="#bdc9be" opacity="1.00" d=" M 178.24 168.27 C 178.79 168.78 178.79 168.78 178.24 168.27 Z" />
</g>
<g id="#889d89ff">
<path fill="#889d89" opacity="1.00" d=" M 274.36 178.31 C 272.91 176.62 275.98 176.50 276.24 178.06 L 275.88 178.89 C 275.50 178.75 274.74 178.45 274.36 178.31 Z" />
</g>
<g id="#95a896ff">
<path fill="#95a896" opacity="1.00" d=" M 239.09 202.67 C 240.47 202.85 240.72 203.53 239.84 204.73 C 238.45 204.54 238.20 203.86 239.09 202.67 Z" />
</g>
</svg>
